<svg width="32" height="32" viewBox="0 0 32 32" fill="none" xmlns="http://www.w3.org/2000/svg">
                                    <rect opacity="0.08" width="32" height="32" rx="4" fill="#B182BC"/>
                                    <path fill-rule="evenodd" clip-rule="evenodd" d="M13.8678 11.4668C14.1865 11.4668 14.4748 11.656 14.6017 11.9483L16.2515 15.7498L20.053 17.3996C20.3453 17.5265 20.5345 17.8148 20.5345 18.1335C20.5345 18.4522 20.3453 18.7405 20.053 18.8673L16.2515 20.5171L14.6017 24.3186C14.4748 24.611 14.1865 24.8001 13.8678 24.8001C13.5491 24.8001 13.2608 24.611 13.134 24.3186L11.4842 20.5171L7.68268 18.8673C7.39033 18.7405 7.20117 18.4522 7.20117 18.1335C7.20117 17.8148 7.39033 17.5265 7.68268 17.3996L11.4842 15.7498L13.134 11.9483C13.2608 11.656 13.5491 11.4668 13.8678 11.4668ZM13.8678 14.2763L12.8262 16.6765C12.7454 16.8626 12.597 17.0111 12.4108 17.0918L10.0107 18.1335L12.4108 19.1751C12.597 19.2559 12.7454 19.4043 12.8262 19.5905L13.8678 21.9906L14.9095 19.5905C14.9902 19.4043 15.1387 19.2559 15.3248 19.1751L17.725 18.1335L15.3248 17.0918C15.1387 17.0111 14.9902 16.8626 14.9095 16.6765L13.8678 14.2763Z" fill="black"/>
                                    <path fill-rule="evenodd" clip-rule="evenodd" d="M20.5342 6.66602C20.8529 6.66602 21.1412 6.85518 21.2681 7.14753L22.1916 9.27537L24.3194 10.1988C24.6118 10.3257 24.8009 10.614 24.8009 10.9327C24.8009 11.2514 24.6118 11.5397 24.3194 11.6666L22.1916 12.59L21.2681 14.7178C21.1412 15.0102 20.8529 15.1993 20.5342 15.1993C20.2155 15.1993 19.9273 15.0102 19.8004 14.7178L18.8769 12.59L16.7491 11.6666C16.4567 11.5397 16.2676 11.2514 16.2676 10.9327C16.2676 10.614 16.4567 10.3257 16.7491 10.1988L18.8769 9.27537L19.8004 7.14753C19.9273 6.85518 20.2155 6.66602 20.5342 6.66602ZM20.5342 9.47551L20.219 10.202C20.1382 10.3881 19.9897 10.5366 19.8036 10.6174L19.0771 10.9327L19.8036 11.248C19.9897 11.3287 20.1382 11.4772 20.219 11.6634L20.5342 12.3899L20.8495 11.6634C20.9303 11.4772 21.0788 11.3287 21.2649 11.248L21.9914 10.9327L21.2649 10.6174C21.0788 10.5366 20.9303 10.3881 20.8495 10.202L20.5342 9.47551Z" fill="#B182BC"/>
                                </svg>