<svg width="32" height="32" viewBox="0 0 32 32" fill="none" xmlns="http://www.w3.org/2000/svg">
                                    <rect opacity="0.08" width="32" height="32" rx="4" fill="#6F99C6"/>
                                    <path fill-rule="evenodd" clip-rule="evenodd" d="M18.4004 15.9992C18.4004 15.5574 18.7586 15.1992 19.2004 15.1992C20.5222 15.1992 21.6004 16.2774 21.6004 17.5992C21.6004 18.921 20.5222 19.9992 19.2004 19.9992C18.7586 19.9992 18.4004 19.641 18.4004 19.1992C18.4004 18.7574 18.7586 18.3992 19.2004 18.3992C19.6386 18.3992 20.0004 18.0374 20.0004 17.5992C20.0004 17.161 19.6386 16.7992 19.2004 16.7992C18.7586 16.7992 18.4004 16.441 18.4004 15.9992Z" fill="#6F99C6"/>
                                    <path fill-rule="evenodd" clip-rule="evenodd" d="M23.4669 20.7999V11.1999C23.4669 10.6108 22.9894 10.1332 22.4003 10.1332H9.60026C9.01116 10.1332 8.53359 10.6108 8.53359 11.1999V20.7999C8.53359 21.389 9.01116 21.8665 9.60026 21.8665H22.4003C22.9894 21.8665 23.4669 21.389 23.4669 20.7999ZM9.60026 8.5332C8.1275 8.5332 6.93359 9.72711 6.93359 11.1999V20.7999C6.93359 22.2726 8.1275 23.4665 9.60026 23.4665H22.4003C23.873 23.4665 25.0669 22.2726 25.0669 20.7999V11.1999C25.0669 9.72711 23.873 8.5332 22.4003 8.5332H9.60026Z" fill="black"/>
                                    <path fill-rule="evenodd" clip-rule="evenodd" d="M7.46693 12.5332C7.46693 12.0914 7.8251 11.7332 8.26693 11.7332L21.0669 11.7332C21.5088 11.7332 21.8669 12.0914 21.8669 12.5332C21.8669 12.975 21.5088 13.3332 21.0669 13.3332L8.26693 13.3332C7.8251 13.3332 7.46693 12.975 7.46693 12.5332Z" fill="black"/>
                                </svg>